<?xml version="1.0" standalone="no"?><!DOCTYPE svg PUBLIC "-//W3C//DTD SVG 1.1//EN" "http://www.w3.org/Graphics/SVG/1.1/DTD/svg11.dtd"><svg t="1700131593133" class="icon" viewBox="0 0 1024 1024" version="1.1" xmlns="http://www.w3.org/2000/svg" p-id="5865" xmlns:xlink="http://www.w3.org/1999/xlink" width="128" height="128"><path d="M832 64 192 64C121.344 64 64 121.344 64 192l0 640c0 70.656 57.344 128 128 128l640 0c70.656 0 128-57.344 128-128L960 192C960 121.344 902.656 64 832 64zM896 672c0 17.664-14.336 32-32 32L768 704l0 64 96 0c17.664 0 32 14.336 32 32S881.664 832 864 832l-128 0c-17.664 0-32-14.336-32-32l0-128c0-17.664 14.336-32 32-32L832 640 832 576l-96 0C718.336 576 704 561.664 704 544S718.336 512 736 512l128 0C881.664 512 896 526.336 896 544L896 672zM864 320l-82.752 0L398.08 797.504C380.48 819.328 354.048 832 326.08 832 287.36 832 256 800.64 256 761.92L256 192 160 192C142.336 192 128 177.664 128 160S142.336 128 160 128l192 0C369.664 128 384 142.336 384 160l0 498.88L654.464 320 608 320C590.336 320 576 305.664 576 288S590.336 256 608 256l256 0C881.664 256 896 270.336 896 288S881.664 320 864 320z" p-id="5866" fill="#1296db"></path></svg>